<svg width="21" height="20" viewBox="0 0 21 20" fill="none" xmlns="http://www.w3.org/2000/svg">
<path d="M2.1665 10.17C2.1665 8.26299 2.1665 7.30948 2.59917 6.51903C3.03184 5.72859 3.82229 5.23801 5.4032 4.25685L7.06986 3.22247C8.74099 2.18532 9.57656 1.66675 10.4998 1.66675C11.4231 1.66675 12.2587 2.18532 13.9298 3.22247L15.5965 4.25685C17.1774 5.23801 17.9678 5.72859 18.4005 6.51903C18.8332 7.30948 18.8332 8.26299 18.8332 10.17V11.4375C18.8332 14.6883 18.8332 16.3137 17.8569 17.3235C16.8805 18.3334 15.3092 18.3334 12.1665 18.3334H8.83317C5.69047 18.3334 4.11913 18.3334 3.14281 17.3235C2.1665 16.3137 2.1665 14.6883 2.1665 11.4375V10.17Z" stroke="white" stroke-width="1.5"/>
<path d="M10.5 12.5L10.5 15" stroke="white" stroke-width="1.5" stroke-linecap="round"/>
</svg>
