<svg width="30" height="40" viewBox="0 0 30 40" fill="none" xmlns="http://www.w3.org/2000/svg">
<path d="M27.1612 40C26.7343 39.9996 26.3129 39.8984 25.9285 39.7036C25.544 39.5088 25.2063 39.2254 24.9406 38.8746C24.1183 37.9427 17.7632 31.3907 13.869 27.3961C13.5995 27.1234 13.3841 26.7975 13.2351 26.437C13.0861 26.0766 13.0065 25.6887 13.0009 25.2959C12.9954 24.903 13.0639 24.5129 13.2025 24.1479C13.3412 23.7829 13.5473 23.4504 13.8089 23.1693C14.0706 22.8884 14.3826 22.6645 14.727 22.5105C15.0714 22.3566 15.4414 22.2759 15.8158 22.2727C16.1901 22.2695 16.5613 22.3441 16.908 22.4921C17.2548 22.6404 17.5701 22.8589 17.836 23.1355C17.8638 23.1641 20.6685 26.0414 23.4522 28.9157L24.3244 29.8166V15.8252C24.3244 10.3841 20.1416 5.95739 15 5.95739C9.85843 5.95739 5.67568 10.3841 5.67568 15.8252V37.0211C5.67568 37.8111 5.37668 38.5688 4.84449 39.1273C4.3123 39.6859 3.59047 39.9996 2.83783 39.9996C2.08519 39.9996 1.36338 39.6859 0.831182 39.1273C0.298986 38.5688 0 37.8111 0 37.0211V15.8252C0 7.09911 6.72895 0 15 0C23.271 0 30 7.09911 30 15.8252V37.0211C29.9997 37.8111 29.7005 38.5688 29.1682 39.1275C28.6359 39.6861 27.914 39.9998 27.1612 40Z" fill="url(#paint0_linear_28_65)"/>
<path d="M15.0002 18.6884C16.7914 18.6884 18.2434 17.1643 18.2434 15.2842C18.2434 13.404 16.7914 11.8799 15.0002 11.8799C13.209 11.8799 11.7569 13.404 11.7569 15.2842C11.7569 17.1643 13.209 18.6884 15.0002 18.6884Z" fill="url(#paint1_linear_28_65)"/>
<defs>
<linearGradient id="paint0_linear_28_65" x1="15" y1="40.48" x2="15" y2="0.119998" gradientUnits="userSpaceOnUse">
<stop stop-color="#00C0F4"/>
<stop offset="1" stop-color="#12ECA0"/>
</linearGradient>
<linearGradient id="paint1_linear_28_65" x1="15.0002" y1="40.4691" x2="15.0002" y2="0.114691" gradientUnits="userSpaceOnUse">
<stop stop-color="#00C0F4"/>
<stop offset="1" stop-color="#12ECA0"/>
</linearGradient>
</defs>
</svg>
