<svg width="128" height="128" viewBox="0 0 128 128" fill="none" xmlns="http://www.w3.org/2000/svg">
<path d="M124.742 58.3778L69.6249 3.2638C66.4529 0.0898008 61.3049 0.0898008 58.1279 3.2638L46.6849 14.7098L61.2029 29.2278C64.5779 28.0888 68.4459 28.8528 71.1349 31.5418C72.4164 32.8244 73.3111 34.4418 73.7166 36.209C74.1221 37.9762 74.0221 39.8218 73.4279 41.5348L87.4199 55.5288C90.8049 54.3618 94.7119 55.1158 97.4139 57.8238C101.194 61.6008 101.194 67.7238 97.4139 71.5028C96.5157 72.4015 95.4491 73.1144 94.2752 73.6009C93.1013 74.0873 91.8431 74.3376 90.5724 74.3376C89.3018 74.3376 88.0435 74.0873 86.8697 73.6009C85.6958 73.1144 84.6292 72.4015 83.7309 71.5028C82.3813 70.1524 81.4614 68.4329 81.0868 66.5608C80.7122 64.6886 80.8998 62.7475 81.6259 60.9818L68.5779 47.9328L68.5759 82.2738C69.5226 82.74 70.387 83.3574 71.1349 84.1018C74.9139 87.8788 74.9139 93.9998 71.1349 97.7848C67.3559 101.562 61.2309 101.562 57.4559 97.7848C53.6779 94.0008 53.3679 87.8798 57.1449 84.1018C58.0789 83.1688 58.9999 82.4638 59.9999 81.9918V47.3328C58.9999 46.8608 58.0799 46.1608 57.1439 45.2218C54.2829 42.3618 53.7479 38.1618 55.2159 34.6458L40.9829 20.3328L3.22894 58.1228C0.0539396 61.2998 0.0739396 66.4478 3.24894 69.6228L58.3749 124.737C61.5479 127.911 66.6999 127.911 69.8779 124.737L124.738 69.8788C127.913 66.7028 127.916 61.5518 124.742 58.3778V58.3778Z" fill="#F34F29"/>
</svg>
