<svg width="128" height="128" viewBox="0 0 128 128" fill="none" xmlns="http://www.w3.org/2000/svg">
<path d="M65.283 106.928C64.455 106.741 63.65 106.482 62.842 106.243L62.233 106.058C61.4447 105.816 60.6606 105.561 59.881 105.293L59.558 105.176C58.8627 104.931 58.1713 104.674 57.484 104.407L56.902 104.178C56.15 103.881 55.402 103.571 54.664 103.247L54.217 103.049C53.584 102.763 52.9543 102.47 52.328 102.17L51.782 101.908C51.291 101.669 50.805 101.415 50.321 101.165C49.997 100.994 49.667 100.833 49.346 100.655C48.7566 100.338 48.1729 100.011 47.595 99.6731L47.004 99.3431C46.2362 98.8902 45.4761 98.4244 44.724 97.9461L44.109 97.5361C43.5619 97.1856 43.0209 96.8258 42.486 96.4571L41.963 96.0901C41.4479 95.7256 40.9365 95.3559 40.429 94.9811L39.75 94.4671C39.2839 94.1125 38.8225 93.7518 38.366 93.3851L37.749 92.8901C37.1679 92.4133 36.5932 91.929 36.025 91.4371L35.837 91.2781C35.2247 90.7382 34.6206 90.1891 34.025 89.6311L33.515 89.1401C33.074 88.7201 32.64 88.2971 32.213 87.8631L31.703 87.3541C31.161 86.7993 30.6279 86.2359 30.104 85.6641L30.026 85.5801C29.4742 84.9755 28.9338 84.3608 28.405 83.7361L27.981 83.2321C27.5854 82.7568 27.1963 82.2761 26.814 81.7901L26.387 81.2581C25.9294 80.6665 25.4804 80.0685 25.04 79.4641C12.89 62.8901 8.52396 40.0321 18.236 21.2601L9.62496 32.1811C-1.40404 48.0321 -0.0310416 68.6571 8.39396 85.5011C8.59396 85.9051 8.80496 86.3021 9.01096 86.6991L9.40596 87.4581L9.65096 87.8951L10.09 88.6811C10.352 89.1421 10.62 89.6011 10.895 90.0601L11.353 90.8161C11.657 91.3071 11.968 91.7921 12.287 92.2761L12.685 92.8901C13.123 93.5451 13.573 94.1991 14.037 94.8411L14.076 94.8911L14.304 95.1991C14.704 95.7521 15.118 96.2981 15.536 96.8381L15.999 97.4281C16.372 97.8971 16.751 98.3631 17.138 98.8271L17.573 99.3471C18.0919 99.9595 18.6207 100.564 19.159 101.159L19.191 101.192L19.253 101.26C19.7818 101.834 20.3191 102.401 20.865 102.959L21.382 103.48C21.805 103.906 22.235 104.325 22.669 104.742L23.195 105.242C23.775 105.789 24.361 106.325 24.959 106.849L24.987 106.871L25.294 107.133C25.82 107.589 26.356 108.042 26.897 108.486L27.561 109.015C28.002 109.369 28.448 109.717 28.897 110.059L29.611 110.602C30.106 110.967 30.606 111.326 31.11 111.677L31.656 112.064L31.806 112.171C32.284 112.5 32.773 112.817 33.262 113.134L33.892 113.554C34.641 114.028 35.402 114.497 36.17 114.95L36.8 115.305C37.3661 115.632 37.9364 115.952 38.511 116.264C38.823 116.432 39.143 116.591 39.457 116.752C39.864 116.965 40.268 117.181 40.682 117.388L40.965 117.525L41.466 117.767C42.107 118.073 42.753 118.374 43.406 118.664L43.816 118.848C44.5645 119.176 45.3189 119.489 46.079 119.789L46.63 120.006C47.334 120.277 48.048 120.545 48.765 120.797L49.033 120.89C49.819 121.165 50.614 121.42 51.414 121.669L51.989 121.841C52.803 122.086 53.607 122.379 54.447 122.534C107.786 132.261 123.28 90.4811 123.28 90.4811C110.266 107.435 87.168 111.907 65.283 106.928V106.928ZM46.069 63.6971C47.264 65.4101 48.589 67.4481 50.174 68.8241C50.7539 69.4593 51.3508 70.0788 51.964 70.6821L52.436 71.1471C53.0318 71.7275 53.6413 72.2936 54.264 72.8451L54.338 72.9091L54.356 72.9271C55.0527 73.5338 55.7646 74.123 56.491 74.6941L56.975 75.0721C57.7053 75.6347 58.4498 76.1785 59.208 76.7031L59.273 76.7521C59.609 76.9841 59.952 77.2001 60.293 77.4241L60.775 77.7431C61.319 78.0921 61.871 78.4321 62.431 78.7581L62.665 78.8941C63.148 79.1721 63.638 79.4461 64.128 79.7121L64.649 79.9831C64.988 80.1601 65.327 80.3411 65.673 80.5131L65.828 80.5831C66.53 80.9291 67.239 81.2631 67.964 81.5781L68.436 81.7721C69.0148 82.0197 69.5982 82.2564 70.186 82.4821L70.936 82.7571C71.469 82.9551 72.004 83.1351 72.544 83.3161L73.271 83.5491C74.038 83.7871 74.796 84.0881 75.595 84.2211C116.778 91.0441 126.285 59.3351 126.285 59.3351C117.715 71.6781 101.117 77.5681 83.406 72.9701C82.623 72.7642 81.8451 72.5394 81.073 72.2961L80.373 72.0691C79.8255 71.8919 79.2814 71.7046 78.741 71.5071L78.005 71.2331C77.4158 71.0067 76.8304 70.7707 76.249 70.5251L75.776 70.3251C75.0518 70.0099 74.3356 69.6768 73.628 69.3261C73.264 69.1491 72.907 68.9621 72.55 68.7781L71.928 68.4581C71.4692 68.2094 71.0147 67.9527 70.565 67.6881L70.239 67.5031C69.6822 67.1782 69.1321 66.8422 68.589 66.4951L68.091 66.1631C67.7323 65.9309 67.376 65.6952 67.022 65.4561C66.2672 64.9311 65.525 64.3882 64.796 63.8281L64.295 63.4331C56.543 57.3131 50.398 48.9471 47.476 39.4621C44.414 29.6261 45.075 18.5841 50.379 9.62207L43.862 18.8221C35.885 30.3001 36.319 45.6661 42.541 57.8051C43.5815 59.847 44.7603 61.8156 46.069 63.6971V63.6971ZM89.476 49.4981C89.815 49.6231 90.154 49.7351 90.498 49.8521L90.949 49.9951C91.433 50.1471 91.915 50.3241 92.416 50.4191C115.155 54.8131 121.324 38.7501 122.965 36.3851C117.562 44.1641 108.483 46.0311 97.342 43.3271C96.462 43.1141 95.494 42.7961 94.646 42.4951C93.5566 42.108 92.4881 41.6644 91.445 41.1661C89.4655 40.2134 87.5857 39.0664 85.833 37.7421C75.864 30.1771 69.671 15.7481 76.176 3.99707L72.656 8.84807C67.954 15.7681 67.492 24.3621 70.755 32.0041C74.196 40.1161 81.247 46.4791 89.476 49.4981V49.4981Z" fill="#0868AC"/>
</svg>
