<svg width="128" height="128" viewBox="0 0 128 128" fill="none" xmlns="http://www.w3.org/2000/svg">
<path d="M6.64807 67.352C6.64807 71.262 6.28507 72.535 5.35207 73.472C4.31607 74.282 2.96907 74.727 1.57007 74.727L1.93407 76.961C4.09807 76.984 6.19907 76.324 7.84007 75.105C8.72307 74.175 9.37907 73.105 9.77007 71.953C10.1587 70.8124 10.2775 69.5972 10.1171 68.403V53.608H6.64807V67.352ZM32.5311 65.59C32.5311 67.266 32.5311 68.762 32.6841 70.059H29.6021L29.3951 67.399C28.7501 68.339 27.8281 69.117 26.7231 69.649C25.5937 70.1895 24.3539 70.4593 23.1021 70.437C20.0981 70.437 16.5231 69.031 16.5231 63.289V53.746H19.9961V62.684C19.9961 65.789 21.1091 67.867 24.2421 67.867C24.8829 67.8754 25.5203 67.7711 26.1251 67.559C26.7084 67.3555 27.2489 67.0456 27.7191 66.645C28.1637 66.2653 28.524 65.797 28.7771 65.27C29.021 64.7634 29.1443 64.2072 29.1371 63.645V53.633H32.6051V65.5L32.5311 65.59ZM39.1101 59.063C39.1101 56.984 39.1101 55.285 38.9531 53.746H42.0631L42.2151 56.539C42.9101 55.527 43.9061 54.699 45.1021 54.141C46.3216 53.5769 47.6575 53.3103 49.0001 53.363C53.6131 53.363 57.0821 56.695 57.0821 61.653C57.0821 67.508 52.9141 70.414 48.4061 70.414C47.2628 70.4602 46.1239 70.248 45.0741 69.793C44.0471 69.343 43.1681 68.672 42.5271 67.843V76.781H39.1101V59.063ZM42.5271 63.418C42.5351 63.824 42.5901 64.23 42.6841 64.625C42.9771 65.617 43.6441 66.496 44.5821 67.125C45.5201 67.754 46.6761 68.09 47.8631 68.09C51.5161 68.09 53.6641 65.52 53.6641 61.79C53.6641 58.527 51.6441 55.734 47.9921 55.734C46.5471 55.836 45.1951 56.387 44.1881 57.289C43.1841 58.191 42.5901 59.375 42.5281 60.625L42.5271 63.418ZM63.2661 53.73L67.4381 63.36C67.8813 64.4549 68.2862 65.5649 68.6521 66.688C69.0161 65.707 69.4021 64.453 69.8721 63.293L73.6521 53.73H77.3051L72.1251 65.348C69.5351 70.934 67.9531 73.816 65.5701 75.558C64.3711 76.508 62.9061 77.168 61.3241 77.48L60.4691 74.98C61.5558 74.6746 62.5814 74.1829 63.5001 73.527C64.7621 72.637 65.7661 71.504 66.4261 70.219C66.5654 70.0008 66.6621 69.7582 66.7111 69.504C66.6793 69.232 66.6001 68.9676 66.4771 68.723L59.4341 53.683H63.2141L63.2661 53.73ZM86.5161 49.043V53.734H91.4881V55.969H86.5161V64.773C86.5161 66.785 87.1911 67.945 89.1061 67.945C89.7846 67.9541 90.4619 67.886 91.1251 67.742L91.2811 69.98C90.2813 70.2753 89.241 70.41 88.1991 70.379C87.5098 70.4173 86.8195 70.3257 86.1641 70.109C85.5306 69.9021 84.9458 69.5687 84.4451 69.129C83.3911 67.91 82.9101 66.395 83.0981 64.883V55.945H80.1451V53.711H83.1481V49.734L86.5161 49.043ZM97.8831 62.418C97.8131 63.176 97.9331 63.938 98.2381 64.648C98.5556 65.3803 99.037 66.0299 99.6451 66.547C100.27 67.086 101.02 67.5 101.848 67.762C102.672 68.027 103.558 68.129 104.434 68.07C106.198 68.1081 107.955 67.8196 109.614 67.219L110.211 69.453C108.175 70.172 106.025 70.5136 103.867 70.461C102.597 70.535 101.328 70.371 100.141 69.984C98.9814 69.6095 97.909 69.0051 96.9881 68.207C96.0981 67.426 95.4101 66.488 94.9801 65.457C94.5524 64.4412 94.3833 63.3351 94.4881 62.238C94.4881 57.32 97.8831 53.434 103.426 53.434C109.641 53.434 111.196 58.125 111.196 61.121C111.226 61.582 111.226 62.043 111.196 62.504H97.8041L97.8831 62.418ZM108.035 60.184C108.136 59.5846 108.087 58.9695 107.891 58.394C107.685 57.8012 107.346 57.2639 106.898 56.824C106.426 56.3547 105.862 55.9877 105.242 55.746C104.598 55.4905 103.912 55.3582 103.219 55.356C101.797 55.446 100.461 55.988 99.4801 56.883C98.4961 57.773 97.9371 58.949 97.9101 60.183L108.035 60.184ZM116.46 58.809C116.46 56.891 116.46 55.234 116.305 53.715H119.415V56.91H119.57C119.895 55.926 120.57 55.05 121.496 54.41C122.426 53.77 123.563 53.395 124.75 53.336C125.074 53.301 125.406 53.301 125.734 53.336V56.129C125.338 56.0899 124.939 56.0899 124.543 56.129C123.367 56.168 122.246 56.574 121.395 57.273C120.539 57.973 120.012 58.918 119.906 59.926C119.809 60.386 119.758 60.848 119.75 61.312V70.004H116.332V58.832L116.46 58.809Z" fill="#4E4E4E"/>
<path d="M109.766 7.28088C109.829 8.7841 109.45 10.2729 108.676 11.5629C107.904 12.8465 106.769 13.8727 105.414 14.5119C104.062 15.1468 102.55 15.3627 101.074 15.1319C99.5955 14.9014 98.2193 14.2354 97.1211 13.2189C96.0183 12.1962 95.2418 10.8708 94.8889 9.40876C94.536 7.94673 94.6223 6.41306 95.1371 4.99988C95.6462 3.58946 96.5609 2.361 97.7661 1.46888C98.9686 0.581079 100.409 0.072369 101.902 0.00788016C102.893 -0.0338713 103.882 0.121015 104.813 0.463599C105.743 0.806183 106.597 1.32968 107.324 2.00388C108.801 3.37111 109.677 5.26642 109.762 7.27688L109.766 7.28088Z" fill="#767677"/>
<path d="M65.758 96.79C45.66 96.79 28.109 89.426 18.992 78.523C22.3726 88.2852 28.697 96.7589 37.094 102.777C45.4558 108.768 55.4835 111.99 65.77 111.992C76.0558 111.988 86.0826 108.766 94.445 102.777C102.841 96.7592 109.162 88.2851 112.539 78.523C103.406 89.426 85.855 96.79 65.758 96.79ZM65.75 25.883C85.848 25.883 103.402 33.25 112.516 44.148C109.135 34.3863 102.811 25.913 94.414 19.895C86.0533 13.9043 76.0274 10.6803 65.742 10.675C55.4566 10.6803 45.4307 13.9043 37.07 19.895C28.672 25.9113 22.3479 34.3853 18.97 44.148C28.102 33.27 45.652 25.883 65.75 25.883Z" fill="#F37726"/>
<path d="M38.1641 117.984C38.2465 119.879 37.7697 121.757 36.7931 123.383C35.8227 125.001 34.3923 126.294 32.6843 127.096C30.9763 127.898 29.0682 128.174 27.2031 127.887C25.3381 127.599 23.6029 126.756 22.2231 125.469C20.8375 124.179 19.8608 122.512 19.4141 120.672C18.9731 118.826 19.0819 116.89 19.7271 115.105C20.3742 113.326 21.5319 111.777 23.0551 110.652C24.8292 109.348 27.0023 108.704 29.2004 108.829C31.3984 108.955 33.484 109.843 35.0981 111.34C36.9554 113.066 38.0571 115.455 38.1641 117.988V117.984Z" fill="#9E9E9E"/>
<path d="M21.2851 23.4181C20.1804 23.4661 19.0867 23.1819 18.1451 22.6021C17.1972 22.0211 16.4426 21.1722 15.9767 20.1628C15.5108 19.1533 15.3543 18.0284 15.5271 16.9301C15.693 15.8289 16.1828 14.802 16.9341 13.9801C17.6787 13.1618 18.6493 12.5827 19.7231 12.3161C20.7962 12.048 21.9253 12.1122 22.9611 12.5001C24.0006 12.883 24.9014 13.5689 25.5471 14.4691C26.3096 15.5224 26.6862 16.8061 26.6136 18.1044C26.5409 19.4028 26.0234 20.6365 25.1481 21.5981C24.6556 22.1417 24.0603 22.5823 23.3966 22.8947C22.7329 23.2071 22.0139 23.385 21.2811 23.4181H21.2851Z" fill="#616262"/>
</svg>
