<svg width="128" height="128" viewBox="0 0 128 128" fill="none" xmlns="http://www.w3.org/2000/svg">
<path fill-rule="evenodd" clip-rule="evenodd" d="M51.834 23.0169C55.59 23.0169 59.346 23.0749 63.097 22.9769C64.092 22.9509 65.877 23.7739 65.797 21.7059C65.736 20.0229 64.175 20.6319 63.229 20.6169C58.992 20.5499 54.741 20.3889 50.521 20.6539C47.518 20.8409 46.633 19.7009 47.01 16.9469C47.14 15.9969 47.015 15.0129 47.035 14.0449C47.167 7.59894 48.725 5.40494 54.977 3.81494C61.865 2.06494 68.914 2.12294 75.783 3.63094C81.958 4.98694 84.523 9.79094 84.211 14.2349C83.831 19.6579 84.125 25.1279 84.12 30.5779C84.111 37.4309 80.57 41.0679 73.661 41.1629C67.971 41.2409 62.274 41.3029 56.587 41.1449C49.809 40.9549 44.837 46.5849 44.803 52.9649C44.803 53.4489 44.886 53.9489 44.79 54.4159C44.302 56.7589 46.252 60.5459 43.768 61.2419C39.988 62.3039 35.562 62.3039 32.228 58.9309C31.098 57.7909 30.146 56.5139 29.644 55.0379C26.965 47.1729 26.542 39.2079 29.064 31.2199C30.636 26.2339 34.912 23.1329 40.209 23.0439C44.083 22.9789 47.958 23.0309 51.832 23.0309L51.834 23.0169ZM58.736 11.8969C58.574 9.99394 57.551 8.60494 55.44 8.54694C53.131 8.48694 51.938 9.88294 51.935 12.1549C51.933 14.2609 53.08 15.6099 55.176 15.6709C57.479 15.7379 58.594 14.3109 58.736 11.8969Z" fill="#386F9F"/>
<path fill-rule="evenodd" clip-rule="evenodd" d="M80.824 61.5719C76.584 61.5719 72.342 61.5349 68.102 61.6019C67.147 61.6139 65.545 61.0099 65.495 62.6429C65.439 64.4949 67.158 64.0129 68.25 64.0239C72.49 64.0769 76.734 64.1219 80.973 64.0039C83.151 63.9439 84.04 64.3609 84.203 66.9289C84.94 78.5539 79.895 79.5589 70.59 81.6739C65.252 82.8869 59.529 82.2439 54.265 79.8859C49.912 77.9389 47.241 75.1329 47.578 69.8789C47.912 64.6929 47.968 59.4399 47.569 54.2589C47.089 48.0059 50.979 43.4069 58.544 43.4049C63.634 43.4039 68.758 43.0159 73.804 43.4799C81.019 44.1419 86.676 37.8879 86.924 30.6159C86.934 30.3749 86.872 30.1159 86.934 29.8919C87.57 27.6569 85.308 24.3349 88.334 23.2059C92.907 21.5009 98.064 23.2929 100.4 26.7629C103.345 31.1319 103.743 36.2729 104.219 41.2929C104.734 46.7039 103.216 51.7979 100.943 56.6789C99.399 59.9889 96.803 61.5889 93.186 61.5939C89.066 61.5969 84.947 61.5939 80.826 61.5939C80.824 61.5859 80.824 61.5789 80.824 61.5719ZM79.72 72.3719C79.267 70.3059 78.335 68.8959 75.935 68.8369C73.439 68.7769 72.795 70.6439 72.808 72.3109C72.822 74.0829 73.316 76.2629 76.018 76.0589C78.264 75.8869 79.359 74.4959 79.72 72.3719Z" fill="#FFCF46"/>
<path fill-rule="evenodd" clip-rule="evenodd" d="M14.129 114.849C14.129 117.431 14.246 119.849 14.074 122.246C14 123.28 15.14 125.226 12.971 125.224C11.059 125.224 10.568 123.702 10.629 121.863C10.746 118.353 10.663 114.836 10.663 111.323V103.325C10.663 98.505 11.956 96.873 16.566 95.875C20.852 94.943 24.22 96.386 25.952 100.138C27.684 103.891 27.818 107.758 26.085 111.576C24.377 115.338 21.231 116.742 17.201 115.627C16.283 115.377 15.356 115.16 14.129 114.849ZM14.129 105.401C14.129 106.731 14.309 108.087 14.092 109.381C13.59 112.372 15.5 113.109 17.752 113.641C19.979 114.167 21.506 113.22 22.399 111.258C23.9 107.968 24.152 104.575 23.012 101.096C22 98.004 19.663 97.642 16.935 98.026C14.241 98.409 13.876 100.241 14.111 102.506C14.211 103.461 14.129 104.436 14.129 105.401ZM43.116 114.689C41.271 115.169 39.669 115.681 38.029 115.989C34.439 116.66 31.781 114.689 30.846 111.095C29.686 106.647 30.668 102.216 30.698 97.778C30.711 95.755 32.583 96.544 33.878 95.46C33.878 100.21 33.896 104.31 33.872 108.407C33.859 110.465 34.391 112.157 36.337 113.242C38.485 114.44 40.247 113.299 42.117 112.53C43.457 111.979 43.29 110.854 43.292 109.784C43.302 105.912 43.291 102.044 43.304 98.172C43.306 97.217 43.207 96.05 44.617 96.097C45.874 96.138 46.421 96.885 46.4 98.255C46.309 104.662 46.49 111.078 46.23 117.476C46.033 122.314 42.62 125.269 37.71 125.486C36.975 125.517 36.205 125.585 35.93 124.673C35.511 123.269 36.648 123.534 37.395 123.295C42.796 121.577 43.502 120.551 43.116 114.689ZM65.94 98.064C67.369 97.389 68.19 96.771 69.093 96.604C74.16 95.667 78.043 96.024 78.033 102.849C78.026 106.364 78.035 109.88 78.026 113.394C78.024 114.378 78.087 115.336 76.62 115.421C75.073 115.513 74.733 114.628 74.74 113.415C74.758 110.028 74.85 106.641 74.847 103.255C74.845 100.625 74.308 98.297 70.963 98.305C68.029 98.31 65.951 100.5 65.936 103.522C65.9192 106.793 65.9202 110.065 65.939 113.336C65.942 114.498 65.967 115.517 64.287 115.421C62.774 115.331 62.96 114.311 62.96 113.372C62.95 104.772 62.992 96.163 62.919 87.557C62.906 86.049 63.501 85.113 64.839 85.049C66.727 84.962 65.862 86.613 65.89 87.441C66.013 90.812 65.94 94.191 65.94 98.064ZM81.93 105.775C81.739 99.06 84.924 95.475 90.69 95.683C93.584 95.789 95.755 97.073 97.156 99.573C99.631 103.995 99.296 108.419 96.618 112.56C94.778 115.404 91.948 116.745 88.498 116.013C85.096 115.293 82.432 112.23 81.95 108.66C81.822 107.715 81.93 106.736 81.93 105.775ZM95.25 105.932C95.098 104.76 95.125 103.126 94.637 101.668C93.97 99.668 92.754 98.058 90.273 97.948C87.77 97.84 86.521 99.303 85.686 101.328C84.375 104.507 84.46 107.699 85.88 110.821C86.792 112.832 88.2 114.304 90.64 113.896C93.043 113.495 94.461 111.92 94.952 109.583C95.175 108.524 95.139 107.415 95.25 105.933V105.932ZM102.257 106.827C102.257 105.615 102.234 104.405 102.261 103.199C102.317 100.874 101.576 98.298 104.711 97.11C108.301 95.754 111.859 94.738 115.473 96.837C116.825 97.623 117.323 99.051 117.337 100.567C117.374 104.798 117.318 109.031 117.375 113.262C117.395 114.738 117.007 115.476 115.348 115.436C113.53 115.393 113.913 114.153 113.925 113.163C113.968 109.783 114.203 106.406 114.139 103.031C114.055 98.781 111.723 97.048 107.75 98.091C106.102 98.525 105.072 99.325 105.153 101.365C105.314 105.347 105.19 109.343 105.205 113.332C105.209 114.488 105.226 115.512 103.558 115.415C102.03 115.327 102.28 114.27 102.268 113.353C102.24 111.177 102.26 109 102.257 106.827ZM58.689 97.403C58.439 97.699 58.229 98.163 58.009 98.167C54.045 98.222 55.145 101.181 55.043 103.376C54.946 105.421 55.043 107.476 55.014 109.527C54.984 111.565 55.161 113.459 57.641 114C58.352 114.154 58.676 114.564 58.528 115.274C58.365 116.058 57.74 116.027 57.121 116.019C54.271 115.969 52.158 113.954 52.074 111.004C51.988 107.99 52.105 104.969 52.034 101.958C51.997 100.528 52.74 98.703 50.434 98.136C50.181 98.075 50.091 97.358 49.926 96.949C53.002 95.984 51.726 93.331 52.148 91.318C52.348 90.365 53.253 90.104 54.108 90.023C54.973 89.941 54.98 90.641 55.008 91.226C55.122 93.546 53.921 96.651 58.192 96.482C58.335 96.477 58.502 97.044 58.689 97.402V97.403Z" fill="#386F9F"/>
</svg>
