<svg width="128" height="128" viewBox="0 0 128 128" fill="none" xmlns="http://www.w3.org/2000/svg">
<path d="M63.391 12.2481C59.169 12.2681 55.139 12.6271 51.591 13.2551C41.141 15.1011 39.245 18.9651 39.245 26.0921V35.5031H63.938V38.6401H29.977C22.801 38.6401 16.517 42.9531 14.551 51.1611C12.283 60.5661 12.183 66.4361 14.551 76.2571C16.306 83.5681 20.498 88.7761 27.675 88.7761H36.166V77.4941C36.166 69.3431 43.217 62.1541 51.592 62.1541H76.257C83.123 62.1541 88.603 56.5001 88.603 49.6061V26.0931C88.603 19.4001 82.957 14.3731 76.257 13.2561C72.013 12.5501 67.612 12.2291 63.391 12.2481V12.2481ZM50.037 19.8171C52.587 19.8171 54.671 21.9341 54.671 24.5381C54.671 27.1311 52.588 29.2281 50.037 29.2281C47.477 29.2281 45.404 27.1311 45.404 24.5381C45.403 21.9341 47.477 19.8171 50.037 19.8171V19.8171Z" fill="url(#paint0_linear_118_740)"/>
<path d="M91.6821 38.6399V49.6059C91.6821 58.1059 84.4741 65.2609 76.2561 65.2609H51.5911C44.8351 65.2609 39.2451 71.0439 39.2451 77.8099V101.325C39.2451 108.016 45.0631 111.953 51.5911 113.872C59.4071 116.169 66.9031 116.585 76.2561 113.872C82.4721 112.071 88.6021 108.449 88.6021 101.325V91.9129H63.9381V88.7749H100.95C108.126 88.7749 110.802 83.7699 113.298 76.2559C115.876 68.5209 115.765 61.0819 113.298 51.1599C111.524 44.0149 108.137 38.6389 100.95 38.6389H91.6821V38.6399ZM77.8091 98.1869C80.3701 98.1869 82.4431 100.284 82.4431 102.879C82.4431 105.481 80.3691 107.598 77.8091 107.598C75.2591 107.598 73.1761 105.481 73.1761 102.879C73.1761 100.284 75.2591 98.1869 77.8091 98.1869V98.1869Z" fill="url(#paint1_linear_118_740)"/>
<path opacity="0.444" d="M97.309 119.597C97.309 123.14 82.493 126.013 64.218 126.013C45.942 126.013 31.126 123.14 31.126 119.597C31.126 116.053 45.941 113.18 64.218 113.18C82.493 113.18 97.309 116.052 97.309 119.597Z" fill="url(#paint2_radial_118_740)"/>
<defs>
<linearGradient id="paint0_linear_118_740" x1="10.3368" y1="15.1907" x2="67.2906" y2="63.7606" gradientUnits="userSpaceOnUse">
<stop stop-color="#5A9FD4"/>
<stop offset="1" stop-color="#306998"/>
</linearGradient>
<linearGradient id="paint1_linear_118_740" x1="88.719" y1="93.9523" x2="68.2944" y2="65.3101" gradientUnits="userSpaceOnUse">
<stop stop-color="#FFD43B"/>
<stop offset="1" stop-color="#FFE873"/>
</linearGradient>
<radialGradient id="paint2_radial_118_740" cx="0" cy="0" r="1" gradientUnits="userSpaceOnUse" gradientTransform="translate(64.0842 119.413) rotate(-90) scale(6.41832 28.2139)">
<stop stop-color="#B8B8B8" stop-opacity="0.498"/>
<stop offset="1" stop-color="#7F7F7F" stop-opacity="0"/>
</radialGradient>
</defs>
</svg>
