<svg width="128" height="128" viewBox="0 0 128 128" fill="none" xmlns="http://www.w3.org/2000/svg">
<path d="M6.20005 52.7001C12.9 55.9001 49.9001 70.8001 55.7001 73.6001C61.5001 76.4001 65.7 76.4001 73.1 72.6001C80.5 68.7001 115.3 54.5001 122 51.0001C125.4 49.2001 126.9 47.8001 126.9 46.6001V34.1001C126.9 32.8001 125.2 31.7001 121.9 30.5001C115.4 28.1001 80.8 14.4001 74.2 11.9001C67.6 9.5001 64.9 9.6001 57.1 12.4001C49.3 15.2001 12.6 29.6001 6.00005 32.2001C2.80005 33.5001 1.00005 34.6001 1.00005 35.9001H0.800049V48.6001C1.00005 49.8001 2.90005 51.1001 6.20005 52.7001V52.7001ZM66.6 54.5001L46.3 46.1001L75.4 41.6001L66.6 54.5001V54.5001ZM110.7 34.5001L93.5 41.3001L91.6 42.0001L74.4 35.2001L93.5 27.7001L110.7 34.5001V34.5001ZM60.1 22.0001L57.3 16.8001L66.1 20.2001L74.4 17.5001L72.2 22.9001L80.6 26.1001L69.7 27.2001L67.3 33.1001L63.4001 26.6001L50.8 25.5001L60.1 22.0001V22.0001ZM38.4001 29.3001C47.0001 29.3001 54 32.0001 54 35.3001C54 38.6001 47.0001 41.3001 38.4001 41.3001C29.8001 41.3001 22.8 38.6001 22.8 35.3001C22.8 32.0001 29.8001 29.3001 38.4001 29.3001V29.3001ZM122 59.8001C115.3 63.3001 80.6 77.6001 73.2 81.4001C65.8 85.3001 61.7001 85.2001 55.9001 82.4001C50.1001 79.6001 12.9 64.7001 6.30005 61.5001C2.90005 59.9001 1.00005 58.6001 1.00005 57.3001V70.0001C1.00005 71.3001 2.90005 72.6001 6.20005 74.2001C12.9 77.4001 49.9001 92.3001 55.7001 95.1001C61.5001 97.9001 65.7 97.9001 73.1 94.1001C80.5 90.2001 115.3 76.0001 122 72.5001C125.4 70.7001 126.9 69.3001 126.9 68.1001V55.6001C126.9 56.7001 125.3 58.1001 122 59.8001V59.8001ZM122 80.5001C115.3 84.0001 80.6 98.3001 73.2 102.1C65.8 106 61.7001 105.9 55.9001 103.1C50.1001 100.3 12.9 85.4001 6.30005 82.2001C2.90005 80.7001 1.00005 79.3001 1.00005 78.0001V90.7001C1.00005 92.0001 2.90005 93.3001 6.20005 94.9001C12.9 98.1001 49.9001 113 55.7001 115.8C61.5001 118.6 65.7 118.6 73.1 114.8C80.5 110.9 115.3 96.7001 122 93.2001C125.4 91.4001 126.9 90.0001 126.9 88.8001V76.3001C126.9 77.5001 125.3 78.8001 122 80.5001Z" fill="#D82C20"/>
</svg>
