<svg width="128" height="128" viewBox="0 0 128 128" fill="none" xmlns="http://www.w3.org/2000/svg">
<path d="M6.532 74.1897V59.3422L0 63.1137L0.01136 57.4905L10.8715 51.288V76.7116L6.532 74.1897ZM11.8485 76.7116L16.188 74.1897V67.0443L19.4597 68.93L19.437 64.0452L16.188 62.1822V59.3422L22.72 63.1137L22.7086 57.4905L11.8485 51.288V76.7116Z" fill="#FF6F00"/>
<path d="M35.1861 59.1475H31.0727V71.4481H28.6962V59.1475H24.5929V57.1311H35.1861V59.1475Z" fill="#425066"/>
<path d="M43.6925 66.9654H36.7231C36.7504 67.9106 37.0401 68.6399 37.5922 69.1522C38.1511 69.6646 38.9168 69.9213 39.888 69.9213C40.9797 69.9213 41.9817 69.5953 42.8939 68.9421V70.8096C41.9624 71.3958 40.731 71.6878 39.1996 71.6878C37.6956 71.6878 36.5141 71.2254 35.6553 70.3007C34.8033 69.3692 34.3773 68.0605 34.3773 66.377C34.3773 64.7866 34.8465 63.4915 35.7859 62.4918C36.73 61.4876 37.9012 60.9844 39.2996 60.9844C40.6969 60.9844 41.7783 61.4342 42.544 62.3328C43.3097 63.2314 43.6925 64.4798 43.6925 66.0771V66.9654ZM41.4557 65.3296C41.4489 64.4969 41.2535 63.8516 40.8673 63.3927C40.481 62.9269 39.9483 62.6929 39.2689 62.6929C38.6044 62.6929 38.0375 62.936 37.5717 63.4222C37.1128 63.9084 36.8299 64.5435 36.7231 65.3296H41.4557Z" fill="#425066"/>
<path d="M55.0048 71.4481H52.6873V65.6886C52.6873 63.7767 52.0126 62.8224 50.6619 62.8224C49.9564 62.8224 49.3736 63.0882 48.9147 63.621C48.4546 64.147 48.2251 64.8127 48.2251 65.6181V71.4481H45.8997V61.2241H48.2263V62.9224H48.266C49.0317 61.6308 50.137 60.9844 51.5809 60.9844C52.693 60.9844 53.5416 61.3479 54.1278 62.0727C54.7128 62.7918 55.0059 63.8335 55.0059 65.1978L55.0048 71.4481Z" fill="#425066"/>
<path d="M57.1916 71.1289V68.9818C58.0572 69.6407 59.0115 69.9701 60.0566 69.9701C61.4539 69.9701 62.1536 69.5578 62.1536 68.7319C62.1604 68.5213 62.0973 68.3144 61.9742 68.1434C61.8421 67.9662 61.6761 67.8171 61.4857 67.705C61.2589 67.5652 61.0173 67.4509 60.7654 67.3642C60.459 67.2526 60.153 67.1398 59.8476 67.0256C59.4576 66.8728 59.0774 66.6961 58.7093 66.4962C58.4005 66.3282 58.1177 66.1162 57.8698 65.8669C57.6531 65.6318 57.4838 65.3572 57.3711 65.0581C57.2575 64.7593 57.2007 64.4106 57.2007 64.0107C57.2007 63.5177 57.3177 63.0848 57.5506 62.7122C57.7834 62.3328 58.0958 62.017 58.4889 61.7637C58.8991 61.4964 59.3515 61.3005 59.8271 61.1843C60.3269 61.0514 60.8427 60.9844 61.3743 60.9844C62.3195 60.9844 63.1658 61.1275 63.911 61.4138V63.4415C63.1919 62.9485 62.3661 62.7031 61.4346 62.7031C61.1657 62.7 60.8975 62.7297 60.6359 62.7918C60.4031 62.852 60.2043 62.9349 60.0373 63.0417C59.879 63.1397 59.7456 63.2731 59.6476 63.4313C59.5547 63.5772 59.5062 63.7469 59.5079 63.9198C59.5016 64.1158 59.55 64.3098 59.6476 64.4798C59.7408 64.6321 59.8771 64.7695 60.0566 64.8888C60.2429 65.0024 60.4633 65.1081 60.7155 65.208C60.9756 65.3012 61.2721 65.4046 61.605 65.5182C62.0434 65.6976 62.4365 65.8817 62.783 66.0668C63.1351 66.2531 63.435 66.4667 63.6804 66.7064C63.9269 66.9393 64.1166 67.2119 64.2507 67.5243C64.3836 67.831 64.4495 68.1968 64.4495 68.6228C64.4495 69.142 64.3302 69.5953 64.0905 69.9804C63.852 70.3666 63.5316 70.687 63.1317 70.9391C62.7047 71.2033 62.2356 71.3923 61.7447 71.4981C61.2052 71.6269 60.6522 71.6906 60.0975 71.6878C58.9785 71.6878 58.0106 71.5015 57.1916 71.1289Z" fill="#425066"/>
<path d="M71.1792 71.6878C69.6024 71.6878 68.3403 71.2118 67.3963 70.261C66.4568 69.3022 65.9876 68.0344 65.9876 66.4554C65.9876 64.74 66.4761 63.3984 67.4554 62.4328C68.4403 61.4672 69.7648 60.9844 71.4291 60.9844C73.0263 60.9844 74.2714 61.4547 75.1631 62.393C76.0549 63.3314 76.5013 64.6321 76.5013 66.2963C76.5013 67.9276 76.0185 69.2351 75.0529 70.2201C74.0953 71.1993 72.8036 71.6878 71.1792 71.6878ZM71.2894 62.8315C70.384 62.8315 69.6683 63.1485 69.1423 63.7801C68.6163 64.4128 68.3539 65.2853 68.3539 66.3963C68.3539 67.4687 68.6198 68.3138 69.1525 68.933C69.6853 69.5453 70.3976 69.8509 71.2894 69.8509C72.2016 69.8509 72.9002 69.5487 73.3864 68.9421C73.8783 68.3366 74.1248 67.4743 74.1248 66.3565C74.1248 65.2319 73.8783 64.3628 73.3864 63.7505C72.9002 63.1382 72.2016 62.8315 71.2894 62.8315Z" fill="#425066"/>
<path d="M84.7884 63.4313C84.509 63.2109 84.1069 63.1019 83.5797 63.1019C82.8947 63.1019 82.3222 63.4108 81.8633 64.03C81.4032 64.6491 81.1737 65.4909 81.1737 66.5564V71.448H78.8574V61.224H81.1748V63.3313H81.2135C81.4407 62.6122 81.786 62.0533 82.2518 61.6535C82.7243 61.2479 83.2514 61.0446 83.8297 61.0446C84.25 61.0446 84.5681 61.1082 84.7884 61.2343V63.4313Z" fill="#425066"/>
<path d="M94.4126 59.1475H89.0621V63.4507H93.9934V65.458H89.0609V71.4481H86.6856V57.1311H94.4126V59.1475Z" fill="#425066"/>
<path d="M99.0259 71.4481H96.6994V56.312H99.0259V71.4481Z" fill="#425066"/>
<path d="M106.574 71.6878C104.997 71.6878 103.735 71.2118 102.791 70.261C101.851 69.3022 101.382 68.0344 101.382 66.4554C101.382 64.74 101.87 63.3984 102.85 62.4328C103.835 61.4672 105.159 60.9844 106.823 60.9844C108.421 60.9844 109.666 61.4547 110.557 62.393C111.45 63.3314 111.896 64.6321 111.896 66.2963C111.896 67.9276 111.413 69.2351 110.448 70.2201C109.49 71.1993 108.199 71.6878 106.575 71.6878H106.574ZM106.684 62.8315C105.778 62.8315 105.063 63.1485 104.537 63.7801C104.012 64.4128 103.748 65.2853 103.748 66.3963C103.748 67.4687 104.015 68.3138 104.547 68.933C105.081 69.5453 105.792 69.8509 106.684 69.8509C107.596 69.8509 108.295 69.5487 108.781 68.9421C109.273 68.3366 109.519 67.4743 109.519 66.3565C109.519 65.2319 109.273 64.3628 108.781 63.7505C108.295 63.1382 107.596 62.8315 106.684 62.8315Z" fill="#425066"/>
<path d="M128.001 61.2241L124.986 71.4481H122.559L120.702 64.5185C120.624 64.225 120.578 63.9243 120.562 63.6211H120.522C120.494 63.9194 120.434 64.2138 120.343 64.4992L118.325 71.4481H115.949L112.944 61.2241H115.341L117.197 68.5934C117.258 68.8126 117.297 69.1046 117.317 69.4715H117.387C117.408 69.192 117.46 68.8921 117.546 68.574L119.614 61.2241H121.79L123.627 68.6229C123.687 68.8558 123.731 69.1489 123.757 69.5022H123.827C123.841 69.2556 123.891 68.9626 123.977 68.6229L125.795 61.2241H128.001Z" fill="#425066"/>
</svg>
